HIERARCHY
ROOT ui
{
	 OFFSET 0 0 0
	 CHANNELS 3 XPosition YPosition Z Position
	 EndSite
	 {
	 OFFSET 0 -1 0
	 }
}
ROOT li
{
	 OFFSET 0 0 0
	 CHANNELS 3 XPosition YPosition Z Position
	 EndSite
	 {
	 OFFSET 0 -1 0
	 }
}
ROOT ul
{
	 OFFSET 0 0 0
	 CHANNELS 3 XPosition YPosition Z Position
	 EndSite
	 {
	 OFFSET 0 -1 0
	 }
}
ROOT ll
{
	 OFFSET 0 0 0
	 CHANNELS 3 XPosition YPosition Z Position
	 EndSite
	 {
	 OFFSET 0 -1 0
	 }
}
ROOT tt
{
	 OFFSET 0 0 0
	 CHANNELS 3 XPosition YPosition Z Position
	 EndSite
	 {
	 OFFSET 0 -1 0
	 }
}
ROOT tb
{
	 OFFSET 0 0 0
	 CHANNELS 3 XPosition YPosition Z Position
	 EndSite
	 {
	 OFFSET 0 -1 0
	 }
}
ROOT td
{
	 OFFSET 0 0 0
	 CHANNELS 3 XPosition YPosition Z Position
	 EndSite
	 {
	 OFFSET 0 -1 0
	 }
}
ROOT v
{
	 OFFSET 0 0 0
	 CHANNELS 3 XPosition YPosition Z Position
	 EndSite
	 {
	 OFFSET 0 -1 0
	 }
}
ROOT bn
{
	 OFFSET 0 0 0
	 CHANNELS 3 XPosition YPosition Z Position
	 EndSite
	 {
	 OFFSET 0 -1 0
	 }
}
MOTION
Frames: 24
Frame Time: 0.002
0.006142794132232666	-0.0013760559558868408	0		0.44485986328125	-2.34428955078125	0		-0.827802978515625	0.31607391357421877	0		-0.6375922241210937	-2.56322900390625	0		2.26843408203125	0.03585867691040039	0		3.862499267578125	-0.11254900360107421	0		4.93134912109375	-0.13521730041503907	0		5.925125	0.28299658203125	0		-0.028000200271606445	5.9519736328125	0		
-0.021759681701660157	-0.0012457170486450196	0		0.4169531555175781	-2.342162353515625	0		-0.88867626953125	0.32042593383789064	0		-0.7204209594726563	-2.54873486328125	0		2.2684658203125	0.025789583206176758	0		3.8754775390625	-0.1307146301269531	0		4.93144580078125	-0.1353047790527344	0		5.920171875	0.27493316650390626	0		-0.11201439666748046	5.928470703125	0		
0.006384408950805664	-0.001501539945602417	0		0.42603094482421877	-2.35029638671875	0		-0.8835035400390625	0.3243258056640625	0		-0.6703388061523438	-2.556130126953125	0		2.27760400390625	0.02464395332336426	0		3.887608154296875	-0.13288975524902344	0		4.92757763671875	-0.13738052368164064	0		5.92537060546875	0.282791015625	0		-0.09676158142089844	5.93930029296875	0		
-0.013369525909423828	0.005534025192260742	0		0.395331298828125	-2.333191162109375	0		-0.8733088989257812	0.32316949462890626	0		-0.6990787353515625	-2.545032470703125	0		2.280836669921875	0.02951801109313965	0		3.892859619140625	-0.12503665924072266	0		4.9537705078125	-0.13866876220703125	0		5.93862353515625	0.2905818786621094	0		-0.08045477294921875	5.9511005859375	0		
0.06486543273925781	9.036409854888916E-4	0		0.45255935668945313	-2.337685302734375	0		-0.8730450439453125	0.3230525207519531	0		-0.671791748046875	-2.540326904296875	0		2.28606005859375	0.023358482360839844	0		3.87405029296875	-0.1360439910888672	0		4.94898095703125	-0.14677055358886718	0		5.94293994140625	0.29841705322265627	0		-0.02617436218261719	5.95062744140625	0		
-0.020821264266967773	-0.001680040955543518	0		0.42188885498046874	-2.337629638671875	0		-0.872713623046875	0.3229064025878906	0		-0.6605157470703125	-2.548544921875	0		2.30136474609375	0.019111185073852538	0		3.9223671875	-0.13850900268554686	0		4.94931201171875	-0.14692205810546874	0		5.9483232421875	0.30623147583007815	0		-0.04290266418457031	5.940591796875	0		
0.06257009124755859	-0.003400597095489502	0		0.44232461547851565	-2.332937255859375	0		-0.877340576171875	0.31876077270507813	0		-0.7080454711914063	-2.538408935546875	0		2.296797119140625	0.02397045135498047	0		3.868774658203125	-0.13732618713378905	0		4.95965283203125	-0.15615676879882812	0		5.95672265625	0.3060115966796875	0		-0.04250598907470703	5.9414150390625	0		
-0.0469575424194336	-0.0018903950452804565	0		0.36781298828125	-2.330654296875	0		-0.8718524169921875	0.3225142822265625	0		-0.6935908203125	-2.54171337890625	0		2.28322802734375	0.01886238670349121	0		3.85718017578125	-0.14644036865234375	0		4.96204443359375	-0.16735861206054686	0		5.95323681640625	0.31385385131835936	0		-0.09508705139160156	5.9385517578125	0		
0.02057356071472168	-5.73428988456726E-4	0		0.4303481140136719	-2.331301513671875	0		-0.8612767333984375	0.3311976623535156	0		-0.6860137939453125	-2.53600927734375	0		2.2877734375	0.02260808753967285	0		3.898673583984375	-0.15092486572265626	0		4.97455712890625	-0.16864701843261717	0		5.96680615234375	0.3215674133300781	0		-0.042500911712646486	5.9549658203125	0		
-0.03882472229003906	0.004536901950836182	0		0.415057861328125	-2.313474365234375	0		-0.865744873046875	0.3259401245117188	0		-0.660400634765625	-2.533460693359375	0		2.307340576171875	0.02222647476196289	0		3.87619775390625	-0.1580155487060547	0		4.9631318359375	-0.16780058288574218	0		5.96737060546875	0.321347900390625	0		-0.009943291664123536	5.96247509765625	0		
0.06473090362548828	-0.004453883171081543	0		0.41367947387695314	-2.316775390625	0		-0.870165283203125	0.3216414794921875	0		-0.7076904296875	-2.52347705078125	0		2.30392431640625	0.01796401786804199	0		3.871758056640625	-0.1662502899169922	0		4.97874169921875	-0.16815380859375	0		5.97292431640625	0.3130762023925781	0		-0.025484886169433594	5.951259765625	0		
-0.04461452865600586	-0.0030979990959167482	0		0.41234994506835937	-2.319115478515625	0		-0.8744922485351563	0.32629995727539063	0		-0.6240963745117187	-2.53838720703125	0		2.30456982421875	0.017641805648803712	0		3.88439306640625	-0.1686248779296875	0		4.96627099609375	-0.18635089111328124	0		5.9646689453125	0.3288718566894531	0		-0.04000724411010742	5.93999755859375	0		
0.011057964324951172	-0.0038562428951263426	0		0.4240338439941406	-2.324580078125	0		-0.868857177734375	0.320850341796875	0		-0.7062833251953125	-2.524262451171875	0		2.3092041015625	0.011257549285888672	0		3.885966064453125	-0.18496023559570313	0		4.98094482421875	-0.1867544708251953	0		5.9873876953125	0.3364384765625	0		-0.07837158203125	5.95084814453125	0		
-0.04022712326049805	-9.634559750556946E-4	0		0.4198524169921875	-2.312982666015625	0		-0.868111083984375	0.3293895568847656	0		-0.6925709228515625	-2.5298037109375	0		2.313930419921875	0.015834735870361327	0		3.8667744140625	-0.16819671630859376	0		4.97570458984375	-0.17706326293945313	0		5.97512744140625	0.34419912719726564	0		-0.07779648590087891	5.9504033203125	0		
0.020508390426635742	0.002164290904998779	0		0.4206119079589844	-2.313458984375	0		-0.86238134765625	0.3328539733886719	0		-0.691806884765625	-2.53030322265625	0		2.31464111328125	0.015398114204406739	0		3.899365966796875	-0.18780636596679687	0		4.99130029296875	-0.19554444885253905	0		5.979888671875	0.35281332397460935	0		-0.09228717041015624	5.93801318359375	0		
-0.014809666633605957	-0.005130890846252441	0		0.419375	-2.3159638671875	0		-0.8717135009765625	0.3243730163574219	0		-0.6779752807617188	-2.522928466796875	0		2.316302734375	0.00491494607925415	0		3.898128173828125	-0.1832365264892578	0		4.98697607421875	-0.20393592834472657	0		5.9845498046875	0.3433896484375	0		-0.04256135559082031	5.957169921875	0		
0.013930879592895507	-0.005877807140350342	0		0.41121142578125	-2.30946484375	0		-0.8709795532226563	0.3237864379882813	0		-0.717178466796875	-2.523255126953125	0		2.317043701171875	0.004397857189178467	0		3.888777587890625	-0.19865489196777344	0		5.00572412109375	-0.20351426696777344	0		5.99034033203125	0.3519203796386719	0		-0.022982555389404295	5.95147998046875	0		
-0.00929383659362793	-0.0033316030502319335	0		0.42298538208007813	-2.3151328125	0		-0.8601802978515625	0.3310965881347656	0		-0.7064125366210937	-2.530941162109375	0		2.293761474609375	-0.0020054059028625486	0		3.876588623046875	-0.1910941619873047	0		4.99336669921875	-0.22193296813964844	0		5.9861396484375	0.35947607421875	0		-0.0924385223388672	5.93831884765625	0		
0.02651923751831055	0.0028019819259643554	0		0.37086297607421875	-2.30643115234375	0		-0.9223978881835937	0.3338341064453125	0		-0.6916078491210937	-2.534689208984375	0		2.306549560546875	3.2416200637817383E-4	0		3.925272216796875	-0.20595858764648436	0		5.00813720703125	-0.22256192016601561	0		6.009951171875	0.3668156433105469	0		-0.07374102783203125	5.94655859375	0		
3.004060089588165E-4	0.002295762062072754	0		0.42071072387695313	-2.3044111328125	0		-0.8536193237304688	0.3337064514160156	0		-0.71470947265625	-2.52522998046875	0		2.303304931640625	-0.004279029846191406	0		3.90806396484375	-0.2054388427734375	0		5.01998876953125	-0.21220712280273438	0		6.00577490234375	0.37429730224609375	0		-0.09114344787597656	5.9369931640625	0		
-0.006955832004547119	-0.005362084865570068	0		0.3905474548339844	-2.3049150390625	0		-0.8578636474609375	0.32901174926757815	0		-0.672970458984375	-2.542211669921875	0		2.31906103515625	-0.010033726692199707	0		3.891749267578125	-0.22295782470703124	0		5.01067724609375	-0.2287511749267578	0		6.00161181640625	0.38274609375	0		-0.020399457931518556	5.94884130859375	0		
-0.0021411240100860595	-0.002123651027679443	0		0.41835928344726564	-2.309812744140625	0		-0.8470811767578125	0.32819482421875	0		-0.7141397705078125	-2.54469775390625	0		2.314743896484375	-0.02768988037109375	0		3.873474609375	-0.23449334716796874	0		5.00641796875	-0.23735565185546875	0		5.99834326171875	0.37416012573242186	0		-0.054770782470703126	5.94232470703125	0		
-0.013373212814331055	-0.005808784008026123	0		0.363232421875	-2.304213623046875	0		-0.8463015747070313	0.3274168701171875	0		-0.7053569946289062	-2.55452294921875	0		2.32049951171875	-0.03343331909179687	0		3.874265869140625	-0.2351731414794922	0		5.00720654296875	-0.2380160369873047	0		6.003171875	0.3814992980957031	0		-0.038039310455322266	5.952462890625	0		
-5.746099948883057E-4	-0.0036640288829803466	0		0.39707839965820313	-2.3021923828125	0		-0.9185082397460937	0.3300751647949219	0		-0.701511474609375	-2.553336181640625	0		2.332367431640625	-0.020234018325805663	0		3.8870380859375	-0.23794747924804688	0		5.0029384765625	-0.24666470336914062	0		6.01294384765625	0.38078790283203123	0		-0.07341358184814453	5.94690673828125	0		
